<svg width="1200" height="630" viewBox="0 0 1200 630" xmlns="http://www.w3.org/2000/svg">
  <defs>
    <linearGradient id="grad" x1="0%" y1="0%" x2="100%" y2="100%">
      <stop offset="0%" style="stop-color:#0f172a;stop-opacity:1" />
      <stop offset="100%" style="stop-color:#3b0764;stop-opacity:1" />
    </linearGradient>
  </defs>
  <rect width="1200" height="630" fill="url(#grad)" />
  <path d="M 0 100 L 1200 100 M 0 200 L 1200 200 M 0 300 L 1200 300 M 0 400 L 1200 400 M 0 500 L 1200 500 M 0 600 L 1200 600" stroke="#334155" stroke-width="1" opacity="0.3" />
  <path d="M 200 0 L 200 630 M 400 0 L 400 630 M 600 0 L 600 630 M 800 0 L 800 630 M 1000 0 L 1000 630" stroke="#334155" stroke-width="1" opacity="0.3" />
  <circle cx="150" cy="150" r="100" fill="#6366f1" opacity="0.1" filter="blur(50px)" />
  <circle cx="1050" cy="480" r="150" fill="#d946ef" opacity="0.1" filter="blur(60px)" />
  <text x="600" y="245" fill="#ffffff" font-size="52" font-family="system-ui, -apple-system, sans-serif" font-weight="bold" text-anchor="middle">AI in Higher Education:</text>
<text x="600" y="315" fill="#ffffff" font-size="52" font-family="system-ui, -apple-system, sans-serif" font-weight="bold" text-anchor="middle">Protecting Student Data</text>
<text x="600" y="385" fill="#ffffff" font-size="52" font-family="system-ui, -apple-system, sans-serif" font-weight="bold" text-anchor="middle">Privacy</text>
  <text x="600" y="570" fill="#a78bfa" font-size="24" font-family="system-ui, -apple-system, sans-serif" font-weight="600" text-anchor="middle" letter-spacing="4">PRAVEENTECHWORLD.COM</text>
</svg>