<svg width="1200" height="600" viewBox="0 0 1200 600" xmlns="http://www.w3.org/2000/svg">
  <!-- Workbench Background (Soft Linen/Cream Wood Tone) -->
  <rect width="1200" height="600" fill="#f4ebe1" />
  
  <!-- Desk wood lines -->
  <line x1="0" y1="200" x2="1200" y2="200" stroke="#ebdcb9" stroke-width="1" stroke-opacity="0.4" />
  <line x1="0" y1="400" x2="1200" y2="400" stroke="#ebdcb9" stroke-width="1" stroke-opacity="0.4" />

  <!-- Flat Technical Blueprint Sheet -->
  <rect x="150" y="60" width="900" height="460" rx="6" fill="#1e293b" stroke="#cbd5e1" stroke-width="2" stroke-opacity="0.1" />
  
  <!-- Blueprint Gridlines -->
  <g stroke="#ffffff" stroke-width="0.5" stroke-opacity="0.05">
    <line x1="200" y1="60" x2="200" y2="520" /><line x1="300" y1="60" x2="300" y2="520" />
    <line x1="400" y1="60" x2="400" y2="520" /><line x1="500" y1="60" x2="500" y2="520" />
    <line x1="600" y1="60" x2="600" y2="520" /><line x1="700" y1="60" x2="700" y2="520" />
    <line x1="800" y1="60" x2="800" y2="520" /><line x1="900" y1="60" x2="900" y2="520" />
    <line x1="150" y1="100" x2="1050" y2="100" /><line x1="150" y1="200" x2="1050" y2="200" />
    <line x1="150" y1="300" x2="1050" y2="300" /><line x1="150" y1="400" x2="1050" y2="400" />
  </g>

  <!-- Flowchart Details -->
  <!-- Raster PNG Block -->
  <rect x="220" y="160" width="180" height="70" rx="4" fill="#334155" stroke="#f43f5e" stroke-width="1.5" />
  <text x="310" y="195" font-family="monospace" font-size="13" fill="#f43f5e" text-anchor="middle">RASTER PNG / JPG</text>
  <text x="310" y="215" font-family="sans-serif" font-size="11" fill="#94a3b8" text-anchor="middle">Fixed Pixel Output</text>

  <!-- Vector SVG Block -->
  <rect x="220" y="340" width="180" height="70" rx="4" fill="#334155" stroke="#86efac" stroke-width="1.5" />
  <text x="310" y="375" font-family="monospace" font-size="13" fill="#86efac" text-anchor="middle">RECRAFT SVG VECTOR</text>
  <text x="310" y="395" font-family="sans-serif" font-size="11" fill="#94a3b8" text-anchor="middle">Bézier Anchor Paths</text>

  <!-- Connections -->
  <path d="M 400 195 H 480 V 260 H 540" fill="none" stroke="#cbd5e1" stroke-opacity="0.3" stroke-width="1.5" />
  <path d="M 400 375 H 480 V 310 H 540" fill="none" stroke="#86efac" stroke-width="2" />

  <!-- Vector Engine Center -->
  <circle cx="630" cy="285" r="50" fill="#1e293b" stroke="#cbd5e1" stroke-width="2" />
  <text x="630" y="280" font-family="monospace" font-size="14" fill="#cbd5e1" text-anchor="middle" font-weight="bold">SVG</text>
  <text x="630" y="298" font-family="sans-serif" font-size="10" fill="#86efac" text-anchor="middle">OPTIMIZER</text>

  <!-- Connection to Output -->
  <path d="M 680 285 H 780" fill="none" stroke="#86efac" stroke-width="2" />

  <!-- Logo Asset Output -->
  <rect x="780" y="230" width="220" height="110" rx="4" fill="#334155" stroke="#38bdf8" stroke-width="2" />
  <text x="890" y="275" font-family="monospace" font-size="13" fill="#38bdf8" text-anchor="middle">SCALABLE LOGO (SVG)</text>
  <text x="890" y="295" font-family="sans-serif" font-size="11" fill="#cbd5e1" text-anchor="middle">&lt; 5KB Clean Vector Asset</text>

  <!-- Subtle Blueprint Labels -->
  <text x="180" y="100" font-family="monospace" font-size="12" fill="#475569">VECTOR BRANDING & LOGO MODEL SCHEMATIC</text>
  <text x="880" y="490" font-family="monospace" font-size="11" fill="#475569">LOCAL / CLOUD INFRA // MODEL 5</text>

  <!-- Cozy Workbench Coffee Mug (Top-Down View, Bottom-Right) -->
  <g transform="translate(1080, 480)">
    <circle cx="2" cy="4" r="54" fill="#1e1b18" fill-opacity="0.15" />
    <circle cx="0" cy="0" r="52" fill="#fffdfa" stroke="#e3dcd3" stroke-width="2" />
    <path d="M 46 -15 C 65 -15 65 15 46 15" fill="none" stroke="#fffdfa" stroke-width="14" stroke-linecap="round" />
    <circle cx="0" cy="0" r="42" fill="#3b2314" />
    <circle cx="0" cy="0" r="39" fill="none" stroke="#523624" stroke-width="2" />
    <path d="M -15 -25 C -5 -30 15 -20 20 -15" fill="none" stroke="#ffffff" stroke-opacity="0.15" stroke-width="3" stroke-linecap="round" />
  </g>

  <!-- Sticky Note with PTW Branding (Top-Right of Blueprint) -->
  <g transform="translate(1020, 100) rotate(5)">
    <rect x="2" y="2" width="110" height="110" fill="#1e1b18" fill-opacity="0.08" />
    <rect width="110" height="110" fill="#fef9c3" stroke="#fef08a" stroke-width="1" />
    <rect x="20" y="30" width="70" height="50" rx="3" fill="none" stroke="#854d0e" stroke-width="2" stroke-dasharray="2,2" />
    <text x="55" y="60" font-family="monospace" font-size="18" font-weight="bold" fill="#854d0e" text-anchor="middle">PTW</text>
    <line x1="25" y1="70" x2="85" y2="70" stroke="#854d0e" stroke-width="1.5" />
  </g>
</svg>